<?xml version="1.0" encoding="UTF-8" standalone="no"?>
<!DOCTYPE svg PUBLIC "-//W3C//DTD SVG 1.1//EN"
 "http://www.w3.org/Graphics/SVG/1.1/DTD/svg11.dtd">
<!-- Generated by graphviz version 2.40.1 (20161225.0304)
 -->
<!-- Title: G Pages: 1 -->
<svg width="421pt" height="260pt"
 viewBox="0.00 0.00 420.74 260.00" xmlns="http://www.w3.org/2000/svg" xmlns:xlink="http://www.w3.org/1999/xlink">
<g id="graph0" class="graph" transform="scale(1 1) rotate(0) translate(4 256)">
<title>G</title>
<polygon fill="#ffffff" stroke="transparent" points="-4,4 -4,-256 416.7399,-256 416.7399,4 -4,4"/>
<!-- react -->
<g id="node1" class="node">
<title>react</title>
<ellipse fill="none" stroke="#000000" cx="273.5952" cy="-162" rx="69.5877" ry="18"/>
<text text-anchor="middle" x="273.5952" y="-158.3" font-family="Times,serif" font-size="14.00" fill="#000000">scalajs&#45;react</text>
</g>
<!-- css -->
<g id="node2" class="node">
<title>css</title>
<ellipse fill="none" stroke="#000000" cx="182.5952" cy="-90" rx="55.7903" ry="18"/>
<text text-anchor="middle" x="182.5952" y="-86.3" font-family="Times,serif" font-size="14.00" fill="#000000">ScalaCSS</text>
</g>
<!-- react&#45;&gt;css -->
<g id="edge3" class="edge">
<title>react&#45;&gt;css</title>
<path fill="none" stroke="#ff0000" stroke-width="2" d="M251.5666,-144.5708C239.6574,-135.1482 224.794,-123.3881 211.9178,-113.2003"/>
<polygon fill="#ff0000" stroke="#ff0000" stroke-width="2" points="213.8082,-110.233 203.7943,-106.7729 209.4648,-115.7226 213.8082,-110.233"/>
</g>
<!-- bm -->
<g id="node4" class="node">
<title>bm</title>
<ellipse fill="none" stroke="#000000" cx="224.5952" cy="-18" rx="98.2828" ry="18"/>
<text text-anchor="middle" x="224.5952" y="-14.3" font-family="Times,serif" font-size="14.00" fill="#000000">scalajs&#45;benchmark</text>
</g>
<!-- react&#45;&gt;bm -->
<g id="edge1" class="edge">
<title>react&#45;&gt;bm</title>
<path fill="none" stroke="#ff0000" stroke-width="2" d="M269.0498,-143.866C264.2957,-125.5431 256.3209,-96.5157 247.5952,-72 244.5007,-63.306 240.7173,-54.0053 237.1197,-45.6152"/>
<polygon fill="#ff0000" stroke="#ff0000" stroke-width="2" points="240.2484,-44.0342 233.034,-36.275 233.8351,-46.8396 240.2484,-44.0342"/>
</g>
<!-- teststate -->
<g id="node6" class="node">
<title>teststate</title>
<ellipse fill="none" stroke="#000000" cx="353.5952" cy="-90" rx="59.2899" ry="18"/>
<text text-anchor="middle" x="353.5952" y="-86.3" font-family="Times,serif" font-size="14.00" fill="#000000">Test&#45;State</text>
</g>
<!-- react&#45;&gt;teststate -->
<g id="edge7" class="edge">
<title>react&#45;&gt;teststate</title>
<path fill="none" stroke="#ff0000" stroke-width="2" d="M292.9609,-144.5708C303.0823,-135.4616 315.6309,-124.1679 326.6818,-114.2221"/>
<polygon fill="#ff0000" stroke="#ff0000" stroke-width="2" points="329.3161,-116.5599 334.4077,-107.2687 324.6334,-111.3568 329.3161,-116.5599"/>
</g>
<!-- css&#45;&gt;bm -->
<g id="edge2" class="edge">
<title>css&#45;&gt;bm</title>
<path fill="none" stroke="#ff0000" stroke-width="2" d="M192.9772,-72.2022C197.787,-63.9569 203.6052,-53.9828 208.9326,-44.8501"/>
<polygon fill="#ff0000" stroke="#ff0000" stroke-width="2" points="212.0253,-46.4945 214.0408,-36.0931 205.9788,-42.9674 212.0253,-46.4945"/>
</g>
<!-- univeq -->
<g id="node3" class="node">
<title>univeq</title>
<ellipse fill="none" stroke="#000000" cx="105.5952" cy="-162" rx="42.4939" ry="18"/>
<text text-anchor="middle" x="105.5952" y="-158.3" font-family="Times,serif" font-size="14.00" fill="#000000">univeq</text>
</g>
<!-- univeq&#45;&gt;css -->
<g id="edge4" class="edge">
<title>univeq&#45;&gt;css</title>
<path fill="none" stroke="#ff0000" stroke-width="2" d="M123.454,-145.3008C133.4168,-135.985 145.9977,-124.221 156.992,-113.9406"/>
<polygon fill="#ff0000" stroke="#ff0000" stroke-width="2" points="159.3846,-116.4951 164.2984,-107.1086 154.6037,-111.3821 159.3846,-116.4951"/>
</g>
<!-- micro -->
<g id="node5" class="node">
<title>micro</title>
<ellipse fill="none" stroke="#000000" cx="54.5952" cy="-90" rx="54.6905" ry="18"/>
<text text-anchor="middle" x="54.5952" y="-86.3" font-family="Times,serif" font-size="14.00" fill="#000000">Microlibs</text>
</g>
<!-- univeq&#45;&gt;micro -->
<g id="edge8" class="edge">
<title>univeq&#45;&gt;micro</title>
<path fill="none" stroke="#ff0000" stroke-width="2" d="M93.2495,-144.5708C87.2006,-136.0312 79.7919,-125.5719 73.0847,-116.1029"/>
<polygon fill="#ff0000" stroke="#ff0000" stroke-width="2" points="75.8178,-113.9061 67.1814,-107.7689 70.1056,-117.9522 75.8178,-113.9061"/>
</g>
<!-- univeq&#45;&gt;teststate -->
<g id="edge5" class="edge">
<title>univeq&#45;&gt;teststate</title>
<path fill="none" stroke="#ff0000" stroke-width="2" d="M140.6015,-151.8369C182.3223,-139.7244 252.4513,-119.3643 300.774,-105.3352"/>
<polygon fill="#ff0000" stroke="#ff0000" stroke-width="2" points="301.8069,-108.6799 310.4345,-102.5305 299.8552,-101.9575 301.8069,-108.6799"/>
</g>
<!-- nyaya -->
<g id="node7" class="node">
<title>nyaya</title>
<ellipse fill="none" stroke="#000000" cx="273.5952" cy="-234" rx="40.0939" ry="18"/>
<text text-anchor="middle" x="273.5952" y="-230.3" font-family="Times,serif" font-size="14.00" fill="#000000">Nyaya</text>
</g>
<!-- nyaya&#45;&gt;react -->
<g id="edge9" class="edge">
<title>nyaya&#45;&gt;react</title>
<path fill="none" stroke="#0000ff" stroke-dasharray="5,2" d="M273.5952,-215.8314C273.5952,-208.131 273.5952,-198.9743 273.5952,-190.4166"/>
<polygon fill="#0000ff" stroke="#0000ff" points="277.0953,-190.4132 273.5952,-180.4133 270.0953,-190.4133 277.0953,-190.4132"/>
</g>
<!-- nyaya&#45;&gt;css -->
<g id="edge10" class="edge">
<title>nyaya&#45;&gt;css</title>
<path fill="none" stroke="#0000ff" stroke-dasharray="5,2" d="M244.0386,-221.409C226.7368,-212.4472 206.0925,-198.6739 194.5952,-180 183.2816,-161.6245 180.6363,-137.1658 180.6238,-118.3842"/>
<polygon fill="#0000ff" stroke="#0000ff" points="184.1239,-118.4206 180.8621,-108.3404 177.1258,-118.2545 184.1239,-118.4206"/>
</g>
<!-- nyaya&#45;&gt;teststate -->
<g id="edge6" class="edge">
<title>nyaya&#45;&gt;teststate</title>
<path fill="none" stroke="#ff0000" stroke-width="2" d="M303.9643,-221.8758C321.5718,-213.0898 342.2522,-199.3372 352.5952,-180 362.6842,-161.1376 362.269,-136.7127 359.6989,-118.068"/>
<polygon fill="#ff0000" stroke="#ff0000" stroke-width="2" points="363.1369,-117.4053 358.0513,-108.1108 356.2308,-118.5481 363.1369,-117.4053"/>
</g>
</g>
</svg>
