<?xml version="1.0" encoding="UTF-8" standalone="no"?>
<!DOCTYPE svg PUBLIC "-//W3C//DTD SVG 1.1//EN"
 "http://www.w3.org/Graphics/SVG/1.1/DTD/svg11.dtd">
<!-- Generated by graphviz version 2.40.1 (20161225.0304)
 -->
<!-- Title: G Pages: 1 -->
<svg width="709pt" height="404pt"
 viewBox="0.00 0.00 708.70 404.00" xmlns="http://www.w3.org/2000/svg" xmlns:xlink="http://www.w3.org/1999/xlink">
<g id="graph0" class="graph" transform="scale(1 1) rotate(0) translate(4 400)">
<title>G</title>
<polygon fill="#ffffff" stroke="transparent" points="-4,4 -4,-400 704.6997,-400 704.6997,4 -4,4"/>
<!-- scalaz -->
<g id="node1" class="node">
<title>scalaz</title>
<ellipse fill="none" stroke="#000000" cx="422.6997" cy="-378" rx="39.7935" ry="18"/>
<text text-anchor="middle" x="422.6997" y="-374.3" font-family="Times,serif" font-size="14.00" fill="#000000">scalaz</text>
</g>
<!-- monocle -->
<g id="node4" class="node">
<title>monocle</title>
<ellipse fill="none" stroke="#000000" cx="205.6997" cy="-306" rx="50.0912" ry="18"/>
<text text-anchor="middle" x="205.6997" y="-302.3" font-family="Times,serif" font-size="14.00" fill="#000000">monocle</text>
</g>
<!-- scalaz&#45;&gt;monocle -->
<g id="edge1" class="edge">
<title>scalaz&#45;&gt;monocle</title>
<path fill="none" stroke="#000000" d="M390.6806,-367.3762C354.117,-355.2445 293.9767,-335.2901 252.238,-321.4413"/>
<polygon fill="#000000" stroke="#000000" points="253.1695,-318.0628 242.576,-318.2355 250.965,-324.7066 253.1695,-318.0628"/>
</g>
<!-- react -->
<g id="node6" class="node">
<title>react</title>
<ellipse fill="#33aa33" stroke="#000000" cx="84.6997" cy="-162" rx="69.5877" ry="18"/>
<text text-anchor="middle" x="84.6997" y="-158.3" font-family="Times,serif" font-size="14.00" fill="#000000">scalajs&#45;react</text>
</g>
<!-- scalaz&#45;&gt;react -->
<g id="edge2" class="edge">
<title>scalaz&#45;&gt;react</title>
<path fill="none" stroke="#000000" d="M383.4039,-374.9658C315.9733,-369.0183 182.0585,-353.7367 146.6997,-324 106.3194,-290.0403 92.1707,-226.6841 87.262,-190.0756"/>
<polygon fill="#000000" stroke="#000000" points="90.728,-189.5824 86.0621,-180.0704 83.7778,-190.416 90.728,-189.5824"/>
</g>
<!-- css -->
<g id="node7" class="node">
<title>css</title>
<ellipse fill="#33aa33" stroke="#000000" cx="168.6997" cy="-90" rx="55.7903" ry="18"/>
<text text-anchor="middle" x="168.6997" y="-86.3" font-family="Times,serif" font-size="14.00" fill="#000000">ScalaCSS</text>
</g>
<!-- scalaz&#45;&gt;css -->
<g id="edge23" class="edge">
<title>scalaz&#45;&gt;css</title>
<path fill="none" stroke="#888888" stroke-dasharray="5,2" d="M383.4891,-374.7967C310.5904,-368.2579 157.5266,-351.6138 112.6997,-324 44.8124,-282.1807 30.7451,-255.6985 5.6997,-180 .6739,-164.8098 -3.6677,-156.9713 5.6997,-144 18.4239,-126.3803 69.5327,-111.3137 111.1725,-101.6079"/>
<polygon fill="#888888" stroke="#888888" points="112.0046,-105.0081 120.9799,-99.3784 110.4528,-98.1823 112.0046,-105.0081"/>
</g>
<!-- univeq -->
<g id="node8" class="node">
<title>univeq</title>
<ellipse fill="#33aa33" stroke="#000000" cx="516.6997" cy="-162" rx="42.4939" ry="18"/>
<text text-anchor="middle" x="516.6997" y="-158.3" font-family="Times,serif" font-size="14.00" fill="#000000">univeq</text>
</g>
<!-- scalaz&#45;&gt;univeq -->
<g id="edge8" class="edge">
<title>scalaz&#45;&gt;univeq</title>
<path fill="none" stroke="#000000" d="M436.6861,-360.7967C444.5149,-350.5623 454.0149,-337.0623 460.6997,-324 483.5753,-279.3003 500.6243,-223.1447 509.5893,-190.0552"/>
<polygon fill="#000000" stroke="#000000" points="513.0315,-190.7293 512.2131,-180.1661 506.2656,-188.9341 513.0315,-190.7293"/>
</g>
<!-- bm -->
<g id="node9" class="node">
<title>bm</title>
<ellipse fill="#33aa33" stroke="#000000" cx="301.6997" cy="-18" rx="98.2828" ry="18"/>
<text text-anchor="middle" x="301.6997" y="-14.3" font-family="Times,serif" font-size="14.00" fill="#000000">scalajs&#45;benchmark</text>
</g>
<!-- scalaz&#45;&gt;bm -->
<g id="edge25" class="edge">
<title>scalaz&#45;&gt;bm</title>
<path fill="none" stroke="#ccbb77" stroke-dasharray="5,2" d="M462.235,-375.4504C538.9859,-368.1343 700.6997,-340.127 700.6997,-234 700.6997,-234 700.6997,-234 700.6997,-162 700.6997,-115.5795 686.0984,-98.0846 647.6997,-72 609.1205,-45.7928 492.5069,-31.6027 405.2505,-24.4387"/>
<polygon fill="#ccbb77" stroke="#ccbb77" points="405.2783,-20.9298 395.0308,-23.6205 404.7196,-27.9075 405.2783,-20.9298"/>
</g>
<!-- micro -->
<g id="node10" class="node">
<title>micro</title>
<ellipse fill="#33aa33" stroke="#000000" cx="562.6997" cy="-90" rx="54.6905" ry="18"/>
<text text-anchor="middle" x="562.6997" y="-86.3" font-family="Times,serif" font-size="14.00" fill="#000000">Microlibs</text>
</g>
<!-- scalaz&#45;&gt;micro -->
<g id="edge10" class="edge">
<title>scalaz&#45;&gt;micro</title>
<path fill="none" stroke="#000000" d="M456.7125,-368.4522C504.6525,-352.9489 590.3038,-317.2583 626.6997,-252 652.3637,-205.984 613.4476,-147.5635 585.9701,-114.9392"/>
<polygon fill="#000000" stroke="#000000" points="588.4738,-112.4841 579.277,-107.2239 583.1862,-117.0712 588.4738,-112.4841"/>
</g>
<!-- teststate -->
<g id="node11" class="node">
<title>teststate</title>
<ellipse fill="#33aa33" stroke="#000000" cx="301.6997" cy="-90" rx="59.2899" ry="18"/>
<text text-anchor="middle" x="301.6997" y="-86.3" font-family="Times,serif" font-size="14.00" fill="#000000">Test&#45;State</text>
</g>
<!-- scalaz&#45;&gt;teststate -->
<g id="edge12" class="edge">
<title>scalaz&#45;&gt;teststate</title>
<path fill="none" stroke="#000000" d="M424.324,-359.8468C427.1401,-318.0699 428.8444,-213.3895 383.6997,-144 374.385,-129.683 359.7991,-118.3006 345.4956,-109.749"/>
<polygon fill="#000000" stroke="#000000" points="347.1077,-106.6401 336.6758,-104.7893 343.6766,-112.7416 347.1077,-106.6401"/>
</g>
<!-- nyaya -->
<g id="node12" class="node">
<title>nyaya</title>
<ellipse fill="#33aa33" stroke="#000000" cx="205.6997" cy="-234" rx="40.0939" ry="18"/>
<text text-anchor="middle" x="205.6997" y="-230.3" font-family="Times,serif" font-size="14.00" fill="#000000">Nyaya</text>
</g>
<!-- scalaz&#45;&gt;nyaya -->
<g id="edge5" class="edge">
<title>scalaz&#45;&gt;nyaya</title>
<path fill="none" stroke="#000000" d="M400.2942,-363.1318C361.3107,-337.2626 280.9432,-283.9312 236.6608,-254.5456"/>
<polygon fill="#000000" stroke="#000000" points="238.5759,-251.616 228.3084,-249.003 234.7054,-257.4486 238.5759,-251.616"/>
</g>
<!-- cats -->
<g id="node2" class="node">
<title>cats</title>
<ellipse fill="none" stroke="#000000" cx="586.6997" cy="-234" rx="30.5947" ry="18"/>
<text text-anchor="middle" x="586.6997" y="-230.3" font-family="Times,serif" font-size="14.00" fill="#000000">cats</text>
</g>
<!-- cats&#45;&gt;univeq -->
<g id="edge9" class="edge">
<title>cats&#45;&gt;univeq</title>
<path fill="none" stroke="#000000" d="M571.5107,-218.3771C562.3862,-208.9918 550.5831,-196.8515 540.2681,-186.2418"/>
<polygon fill="#000000" stroke="#000000" points="542.5601,-183.5783 533.0798,-178.8481 537.5411,-188.4579 542.5601,-183.5783"/>
</g>
<!-- cats&#45;&gt;bm -->
<g id="edge27" class="edge">
<title>cats&#45;&gt;bm</title>
<path fill="none" stroke="#ccbb77" stroke-dasharray="5,2" d="M599.3428,-217.1451C621.7574,-185.0697 662.85,-114.6525 626.6997,-72 611.9068,-54.5464 488.649,-37.8158 398.2877,-27.7224"/>
<polygon fill="#ccbb77" stroke="#ccbb77" points="398.5956,-24.2352 388.2716,-26.6156 397.8267,-31.1929 398.5956,-24.2352"/>
</g>
<!-- cats&#45;&gt;teststate -->
<g id="edge13" class="edge">
<title>cats&#45;&gt;teststate</title>
<path fill="none" stroke="#000000" d="M588.3406,-215.6706C589.0808,-195.2255 586.8214,-162.59 567.6997,-144 503.5686,-81.6526 457,-127.459 369.6997,-108 365.0286,-106.9588 360.1943,-105.8147 355.356,-104.6234"/>
<polygon fill="#000000" stroke="#000000" points="356.0228,-101.182 345.4705,-102.1299 354.3107,-107.9694 356.0228,-101.182"/>
</g>
<!-- shapeless -->
<g id="node3" class="node">
<title>shapeless</title>
<ellipse fill="none" stroke="#000000" cx="434.6997" cy="-90" rx="55.7903" ry="18"/>
<text text-anchor="middle" x="434.6997" y="-86.3" font-family="Times,serif" font-size="14.00" fill="#000000">shapeless</text>
</g>
<!-- shapeless&#45;&gt;bm -->
<g id="edge26" class="edge">
<title>shapeless&#45;&gt;bm</title>
<path fill="none" stroke="#ccbb77" stroke-dasharray="5,2" d="M405.8406,-74.3771C387.2064,-64.2894 362.6926,-51.0188 342.1299,-39.887"/>
<polygon fill="#ccbb77" stroke="#ccbb77" points="343.7529,-36.7858 333.2926,-35.1029 340.4204,-42.9416 343.7529,-36.7858"/>
</g>
<!-- monocle&#45;&gt;react -->
<g id="edge3" class="edge">
<title>monocle&#45;&gt;react</title>
<path fill="none" stroke="#000000" d="M189.5318,-288.7354C179.8437,-278.2547 167.3747,-264.5252 156.6997,-252 138.7414,-230.9292 119.1633,-206.3451 104.962,-188.2003"/>
<polygon fill="#000000" stroke="#000000" points="107.3626,-185.5871 98.4531,-179.8537 101.8426,-189.8917 107.3626,-185.5871"/>
</g>
<!-- monocle&#45;&gt;bm -->
<g id="edge4" class="edge">
<title>monocle&#45;&gt;bm</title>
<path fill="none" stroke="#000000" d="M166.2503,-294.8846C98.9038,-273.5858 -27.8908,-222.0933 5.6997,-144 24.0846,-101.2574 40.8564,-94.2882 81.6997,-72 120.8481,-50.6366 168.4821,-37.6039 209.4023,-29.7134"/>
<polygon fill="#000000" stroke="#000000" points="210.1838,-33.1282 219.3787,-27.8647 208.9084,-26.2454 210.1838,-33.1282"/>
</g>
<!-- monocle&#45;&gt;teststate -->
<g id="edge28" class="edge">
<title>monocle&#45;&gt;teststate</title>
<path fill="none" stroke="#ccbb77" stroke-dasharray="5,2" d="M237.8822,-291.9868C276.9005,-273.0068 340.7743,-235.0527 367.6997,-180 374.7293,-165.627 374.5513,-158.4587 367.6997,-144 361.5267,-130.9735 350.5019,-120.0445 339.2089,-111.5017"/>
<polygon fill="#ccbb77" stroke="#ccbb77" points="341.1915,-108.6171 331.004,-105.7072 337.1533,-114.3349 341.1915,-108.6171"/>
</g>
<!-- monocle&#45;&gt;nyaya -->
<g id="edge6" class="edge">
<title>monocle&#45;&gt;nyaya</title>
<path fill="none" stroke="#000000" d="M205.6997,-287.8314C205.6997,-280.131 205.6997,-270.9743 205.6997,-262.4166"/>
<polygon fill="#000000" stroke="#000000" points="209.1998,-262.4132 205.6997,-252.4133 202.1998,-262.4133 209.1998,-262.4132"/>
</g>
<!-- dom -->
<g id="node5" class="node">
<title>dom</title>
<ellipse fill="none" stroke="#000000" cx="276.6997" cy="-162" rx="65.7887" ry="18"/>
<text text-anchor="middle" x="276.6997" y="-158.3" font-family="Times,serif" font-size="14.00" fill="#000000">scalajs&#45;dom</text>
</g>
<!-- dom&#45;&gt;css -->
<g id="edge7" class="edge">
<title>dom&#45;&gt;css</title>
<path fill="none" stroke="#000000" d="M251.6508,-145.3008C236.8242,-135.4164 217.8634,-122.7759 201.813,-112.0756"/>
<polygon fill="#000000" stroke="#000000" points="203.5023,-108.9953 193.2403,-106.3604 199.6193,-114.8196 203.5023,-108.9953"/>
</g>
<!-- dom&#45;&gt;teststate -->
<g id="edge11" class="edge">
<title>dom&#45;&gt;teststate</title>
<path fill="none" stroke="#000000" d="M283.0082,-143.8314C285.7828,-135.8406 289.1018,-126.2819 292.1679,-117.4514"/>
<polygon fill="#000000" stroke="#000000" points="295.5059,-118.5082 295.4797,-107.9134 288.8932,-116.2121 295.5059,-118.5082"/>
</g>
<!-- react&#45;&gt;css -->
<g id="edge16" class="edge">
<title>react&#45;&gt;css</title>
<path fill="none" stroke="#ff0000" stroke-width="2" d="M105.0337,-144.5708C115.8432,-135.3055 129.2894,-123.7802 141.0356,-113.7121"/>
<polygon fill="#ff0000" stroke="#ff0000" stroke-width="2" points="143.5279,-116.1856 148.8427,-107.0202 138.9723,-110.8708 143.5279,-116.1856"/>
</g>
<!-- react&#45;&gt;bm -->
<g id="edge14" class="edge">
<title>react&#45;&gt;bm</title>
<path fill="none" stroke="#ff0000" stroke-width="2" d="M83.3563,-143.9637C82.8892,-123.7877 85.3985,-91.3984 103.6997,-72 119.7643,-54.9722 171.5044,-41.1975 218.0634,-31.8226"/>
<polygon fill="#ff0000" stroke="#ff0000" stroke-width="2" points="218.7674,-35.2513 227.9052,-29.8893 217.4181,-28.3826 218.7674,-35.2513"/>
</g>
<!-- react&#45;&gt;teststate -->
<g id="edge20" class="edge">
<title>react&#45;&gt;teststate</title>
<path fill="none" stroke="#ff0000" stroke-width="2" d="M127.5719,-147.7751C163.2879,-135.9246 214.2014,-119.0317 251.7544,-106.5717"/>
<polygon fill="#ff0000" stroke="#ff0000" stroke-width="2" points="253.0924,-109.8155 261.4813,-103.3443 250.8879,-103.1716 253.0924,-109.8155"/>
</g>
<!-- css&#45;&gt;bm -->
<g id="edge15" class="edge">
<title>css&#45;&gt;bm</title>
<path fill="none" stroke="#ff0000" stroke-width="2" d="M197.5587,-74.3771C216.1929,-64.2894 240.7067,-51.0188 261.2694,-39.887"/>
<polygon fill="#ff0000" stroke="#ff0000" stroke-width="2" points="262.9789,-42.9416 270.1067,-35.1029 259.6464,-36.7858 262.9789,-42.9416"/>
</g>
<!-- univeq&#45;&gt;css -->
<g id="edge17" class="edge">
<title>univeq&#45;&gt;css</title>
<path fill="none" stroke="#ff0000" stroke-width="2" d="M477.1132,-155.4968C422.1961,-146.2367 319.9139,-128.1274 233.6997,-108 229.3488,-106.9843 224.8509,-105.8714 220.3465,-104.713"/>
<polygon fill="#ff0000" stroke="#ff0000" stroke-width="2" points="221.0915,-101.2899 210.5296,-102.1242 219.3065,-108.0585 221.0915,-101.2899"/>
</g>
<!-- univeq&#45;&gt;micro -->
<g id="edge21" class="edge">
<title>univeq&#45;&gt;micro</title>
<path fill="none" stroke="#ff0000" stroke-width="2" d="M527.835,-144.5708C533.2351,-136.1184 539.8369,-125.7851 545.8374,-116.3931"/>
<polygon fill="#ff0000" stroke="#ff0000" stroke-width="2" points="548.9128,-118.0802 551.3473,-107.7689 543.0139,-114.3115 548.9128,-118.0802"/>
</g>
<!-- univeq&#45;&gt;teststate -->
<g id="edge18" class="edge">
<title>univeq&#45;&gt;teststate</title>
<path fill="none" stroke="#ff0000" stroke-width="2" d="M483.1059,-150.75C447.7553,-138.9116 391.7383,-120.1525 351.3002,-106.6104"/>
<polygon fill="#ff0000" stroke="#ff0000" stroke-width="2" points="352.2295,-103.2306 341.6356,-103.3739 350.0066,-109.8683 352.2295,-103.2306"/>
</g>
<!-- nyaya&#45;&gt;react -->
<g id="edge22" class="edge">
<title>nyaya&#45;&gt;react</title>
<path fill="none" stroke="#888888" stroke-dasharray="5,2" d="M181.5043,-219.6028C164.2799,-209.3535 140.8255,-195.3972 121.3174,-183.7891"/>
<polygon fill="#888888" stroke="#888888" points="123.0519,-180.7484 112.6685,-178.6426 119.4724,-186.764 123.0519,-180.7484"/>
</g>
<!-- nyaya&#45;&gt;css -->
<g id="edge24" class="edge">
<title>nyaya&#45;&gt;css</title>
<path fill="none" stroke="#888888" stroke-dasharray="5,2" d="M201.0884,-216.0535C194.7737,-191.4774 183.3714,-147.1008 175.9191,-118.0974"/>
<polygon fill="#888888" stroke="#888888" points="179.2476,-116.9871 173.369,-108.1727 172.4678,-118.7291 179.2476,-116.9871"/>
</g>
<!-- nyaya&#45;&gt;teststate -->
<g id="edge19" class="edge">
<title>nyaya&#45;&gt;teststate</title>
<path fill="none" stroke="#ff0000" stroke-width="2" d="M241.693,-225.6728C280.6027,-215.8561 338.8043,-198.5187 351.6997,-180 366.5782,-158.6334 348.3369,-132.4435 329.849,-113.8369"/>
<polygon fill="#ff0000" stroke="#ff0000" stroke-width="2" points="332.1966,-111.2391 322.5505,-106.8571 327.3586,-116.2981 332.1966,-111.2391"/>
</g>
</g>
</svg>
